<svg version="1.1" xmlns="http://www.w3.org/2000/svg" xmlns:xlink="http://www.w3.org/1999/xlink">
<defs>

<symbol id="icon-blog" viewBox="0 0 32 32">
<title>blog</title>
<path d="M7.531 15.269c0.131-0.1 0.2-0.256 0.2-0.469 0-0.219-0.063-0.369-0.188-0.463s-0.338-0.137-0.638-0.137h-1.969v1.2h1.969c0.3 0 0.506-0.044 0.625-0.131z"></path>
<path d="M19.85 14.575c-0.331-0.287-0.744-0.431-1.238-0.438-0.488 0-0.9 0.144-1.225 0.438-0.387 0.344-0.581 0.794-0.581 1.35s0.194 1.006 0.581 1.35c0.325 0.294 0.738 0.438 1.231 0.438s0.906-0.144 1.231-0.438c0.194-0.175 0.344-0.387 0.444-0.637 0.087-0.225 0.137-0.456 0.137-0.694-0.006-0.581-0.2-1.037-0.581-1.369z"></path>
<path d="M7.606 16.394c-0.156-0.1-0.406-0.144-0.763-0.144h-1.906v1.4h1.906c0.356 0 0.606-0.050 0.763-0.144 0.181-0.113 0.269-0.3 0.269-0.556s-0.088-0.444-0.269-0.556z"></path>
<path d="M16 0c-8.825 0-16 7.175-16 16 0 8.819 7.175 16 16 16 8.819 0 16-7.181 16-16 0-8.825-7.175-16-16-16zM8.519 18.119c-0.169 0.131-0.369 0.231-0.594 0.288s-0.5 0.087-0.831 0.087h-3.519v-0.119c0.087-0.025 0.15-0.056 0.188-0.1 0.038-0.038 0.050-0.1 0.050-0.175v-4.35c0-0.075-0.019-0.137-0.050-0.175-0.038-0.037-0.1-0.075-0.188-0.1v-0.119h3.481c0.331 0 0.6 0.025 0.806 0.075s0.381 0.137 0.538 0.256c0.306 0.238 0.456 0.581 0.456 1.031 0 0.5-0.231 0.863-0.694 1.081 0.575 0.219 0.869 0.625 0.869 1.212-0.012 0.469-0.181 0.837-0.512 1.106zM15.019 18.738h-0.119c-0.025-0.087-0.056-0.156-0.1-0.188-0.037-0.038-0.1-0.050-0.175-0.050h-4.519v-0.125c0.088-0.025 0.15-0.056 0.188-0.1 0.037-0.038 0.050-0.1 0.050-0.175v-4.35c0-0.075-0.019-0.137-0.050-0.175-0.037-0.037-0.1-0.075-0.188-0.1v-0.119h1.606v0.119c-0.088 0.025-0.15 0.056-0.188 0.094-0.037 0.044-0.050 0.1-0.050 0.181v3.894h3.15c0.075 0 0.137-0.019 0.175-0.050 0.037-0.038 0.075-0.1 0.1-0.188h0.119v1.331zM21.175 17.337c-0.519 0.831-1.375 1.25-2.556 1.25-0.887 0-1.594-0.244-2.119-0.725-0.281-0.256-0.494-0.569-0.637-0.931-0.125-0.319-0.194-0.656-0.194-1.006 0-0.512 0.131-0.988 0.394-1.412 0.506-0.819 1.356-1.231 2.55-1.244 0.894 0 1.606 0.244 2.131 0.725 0.556 0.506 0.831 1.162 0.831 1.963 0 0.494-0.137 0.95-0.4 1.381zM28.238 17.556c0.038 0.038 0.1 0.075 0.188 0.1v0.094c-0.975 0.556-1.919 0.837-2.837 0.837-0.831 0-1.506-0.2-2.031-0.594-0.663-0.5-0.988-1.188-0.988-2.069 0-0.825 0.294-1.481 0.881-1.963 0.556-0.463 1.3-0.694 2.219-0.694 0.294 0 0.569 0.025 0.831 0.081s0.556 0.144 0.887 0.275c0.169 0.069 0.294 0.1 0.363 0.1 0.050 0 0.113-0.031 0.188-0.088l0.106 0.056-0.606 1.231-0.106-0.056c0-0.081-0.012-0.144-0.031-0.175-0.019-0.037-0.063-0.081-0.137-0.131-0.15-0.113-0.375-0.213-0.675-0.294s-0.575-0.119-0.837-0.119c-0.538 0-0.981 0.15-1.337 0.45-0.4 0.344-0.6 0.794-0.6 1.35 0 0.544 0.194 0.981 0.581 1.312 0.356 0.306 0.825 0.456 1.406 0.456 0.281 0 0.563-0.031 0.837-0.1 0.275-0.063 0.512-0.156 0.712-0.269v-0.7h-1.269c-0.075 0-0.137 0.019-0.175 0.050-0.038 0.038-0.069 0.1-0.094 0.188h-0.119v-1.2h0.119c0.025 0.094 0.056 0.156 0.094 0.188s0.1 0.050 0.175 0.050h2.438v0.119c-0.087 0.025-0.15 0.056-0.188 0.1-0.038 0.038-0.056 0.1-0.056 0.175v1.056c0.006 0.081 0.025 0.144 0.063 0.181z"></path>
</symbol>

<symbol id="icon-facebook" viewBox="0 0 32 32">
<title>facebook</title>
<path d="M16 0c-8.822 0-16 7.178-16 16s7.178 16 16 16c8.822 0 16-7.178 16-16s-7.177-16-16-16zM19.979 16.563h-2.603c0 4.159 0 9.278 0 9.278h-3.857c0 0 0-5.070 0-9.278h-1.834v-3.279h1.834v-2.121c0-1.519 0.722-3.893 3.893-3.893l2.858 0.011v3.183c0 0-1.737 0-2.075 0s-0.818 0.169-0.818 0.893v1.927h2.939l-0.337 3.279z"></path>
</symbol>

<symbol id="icon-instagram" viewBox="0 0 32 32">
<title>instagram</title>
<path d="M23.619 11.881c0-1.9-1.544-3.438-3.438-3.438h-8.238c-1.9 0-3.438 1.544-3.438 3.438v8.231c0 1.9 1.544 3.438 3.438 3.438h8.231c1.9 0 3.438-1.544 3.438-3.438v0-8.231zM16.063 20.738c-2.613 0-4.738-2.125-4.738-4.738s2.125-4.738 4.738-4.738c2.613 0 4.738 2.125 4.738 4.738s-2.125 4.738-4.738 4.738zM21.844 11.925c-0.225 0.219-0.531 0.35-0.844 0.35s-0.625-0.131-0.844-0.35c-0.225-0.225-0.35-0.531-0.35-0.844s0.131-0.625 0.35-0.844c0.219-0.225 0.531-0.35 0.844-0.35s0.625 0.125 0.844 0.35c0.225 0.219 0.35 0.531 0.35 0.844s-0.131 0.619-0.35 0.844z"></path>
<path d="M16.063 12.894c-1.713 0-3.106 1.394-3.106 3.106s1.394 3.106 3.106 3.106 3.106-1.394 3.106-3.106c0-1.713-1.394-3.106-3.106-3.106z"></path>
<path d="M16 0c-8.825 0-16 7.175-16 16 0 8.819 7.175 16 16 16 8.819 0 16-7.181 16-16 0-8.825-7.175-16-16-16zM25.25 20.119c0 2.794-2.275 5.069-5.069 5.069h-8.238c-2.794 0-5.069-2.275-5.069-5.069v-8.238c0-2.794 2.275-5.069 5.069-5.069h8.231c2.794 0 5.069 2.275 5.069 5.069v8.238z"></path>
</symbol>

<symbol id="icon-line" viewBox="0 0 32 32">
<title>line</title>
<path d="M16 0c-8.825 0-16 7.175-16 16 0 8.819 7.175 16 16 16 8.819 0 16-7.181 16-16 0-8.825-7.175-16-16-16zM26.419 15.85c-0.012 0.169-0.038 0.381-0.081 0.631-0.131 0.8-0.4 1.569-0.8 2.288-0.188 0.337-1.1 1.619-1.381 1.956-1.544 1.856-4.125 4-8.438 6.081-0.4 0.194-0.863-0.131-0.813-0.575l0.219-1.956c0.037-0.313-0.188-0.594-0.5-0.625-5.106-0.538-9.050-4.012-9.050-8.219 0-4.581 4.669-8.294 10.425-8.294 5.594 0 10.162 3.506 10.412 7.906 0.006 0.125 0.025 0.537 0.006 0.806z"></path>
<path d="M13.556 13.081h-0.231c-0.231 0-0.419 0.188-0.419 0.419v4.256c0 0.231 0.188 0.419 0.419 0.419h0.231c0.231 0 0.419-0.188 0.419-0.419v-4.256c-0.006-0.231-0.194-0.419-0.419-0.419z"></path>
<path d="M11.863 17.106h-1.6v-3.494c0-0.294-0.238-0.531-0.531-0.531s-0.531 0.238-0.531 0.531v4.025c0 0.294 0.238 0.531 0.531 0.531h2.131c0.294 0 0.531-0.238 0.531-0.531 0.006-0.294-0.238-0.531-0.531-0.531z"></path>
<path d="M18.394 13.081c-0.294 0-0.531 0.238-0.531 0.531v2.462c0 0-2.131-2.775-2.162-2.813-0.1-0.113-0.25-0.188-0.419-0.181-0.287 0.012-0.512 0.262-0.512 0.556v4.006c0 0.294 0.238 0.531 0.531 0.531s0.531-0.238 0.531-0.531v-2.444c0 0 2.162 2.8 2.194 2.831 0.094 0.087 0.219 0.144 0.363 0.144 0.294 0 0.538-0.256 0.538-0.556v-4.006c0.006-0.294-0.231-0.531-0.531-0.531z"></path>
<path d="M22.394 16.163c0.294 0 0.531-0.238 0.531-0.531s-0.238-0.531-0.531-0.531h-1.6v-0.944h1.6c0.294 0 0.531-0.238 0.531-0.531s-0.238-0.531-0.531-0.531h-2.131c-0.294 0-0.531 0.238-0.531 0.531v4.025c0 0.294 0.238 0.531 0.531 0.531h2.131c0.294 0 0.531-0.238 0.531-0.531s-0.238-0.531-0.531-0.531h-1.6v-0.944h1.6z"></path>
</symbol>

<symbol id="icon-tel" viewBox="0 0 32 32">
<title>tel</title>
<path d="M31.985 25.248c0.068 0.52-0.090 0.971-0.474 1.355l-4.506 4.471c-0.203 0.226-0.469 0.418-0.796 0.576s-0.649 0.26-0.965 0.305c-0.023 0-0.090 0.006-0.203 0.017s-0.26 0.017-0.44 0.017c-0.429 0-1.124-0.073-2.084-0.22s-2.134-0.508-3.523-1.084c-1.389-0.576-2.964-1.44-4.726-2.592s-3.636-2.733-5.623-4.743c-1.581-1.558-2.891-3.049-3.93-4.472s-1.874-2.738-2.507-3.947c-0.632-1.208-1.107-2.304-1.423-3.286s-0.531-1.829-0.644-2.541-0.158-1.27-0.136-1.677c0.023-0.407 0.034-0.632 0.034-0.678 0.045-0.316 0.147-0.638 0.305-0.965s0.35-0.593 0.576-0.796l4.506-4.506c0.316-0.316 0.678-0.474 1.084-0.474 0.294 0 0.553 0.085 0.779 0.254s0.418 0.378 0.576 0.627l3.625 6.877c0.203 0.361 0.26 0.757 0.169 1.186s-0.282 0.79-0.576 1.084l-1.66 1.66c-0.045 0.045-0.085 0.119-0.119 0.22s-0.051 0.186-0.051 0.254c0.090 0.474 0.294 1.016 0.61 1.626 0.271 0.542 0.689 1.203 1.253 1.982s1.366 1.677 2.405 2.693c1.016 1.039 1.92 1.846 2.71 2.422s1.451 0.999 1.982 1.27 0.937 0.435 1.22 0.491l0.423 0.085c0.045 0 0.119-0.017 0.22-0.051s0.175-0.073 0.22-0.119l1.931-1.965c0.407-0.361 0.881-0.542 1.423-0.542 0.384 0 0.689 0.068 0.915 0.203h0.034l6.538 3.862c0.474 0.294 0.757 0.666 0.847 1.118z"></path>
</symbol>

<symbol id="icon-translate" viewBox="0 0 32 32">
<title>translate</title>
<path d="M13.624 12.599h-4.031c-0.346 0-0.627 0.281-0.627 0.627s0.281 0.627 0.627 0.627h3.347c-0.295 1.579-1.683 2.778-3.347 2.778-1.877 0-3.405-1.527-3.405-3.405s1.527-3.405 3.405-3.405c0.909 0 1.764 0.354 2.407 0.997 0.245 0.245 0.642 0.245 0.886 0s0.245-0.642 0-0.886c-0.88-0.88-2.049-1.364-3.294-1.364-2.568 0-4.658 2.089-4.658 4.658s2.089 4.658 4.658 4.658 4.658-2.089 4.658-4.658c0-0.346-0.28-0.627-0.627-0.627z"></path>
<path d="M29.396 5.765h-12.538l-1.683-5.085c-0.085-0.257-0.325-0.43-0.595-0.43h-11.975c-1.436 0-2.604 1.168-2.604 2.604v20.776c0 1.436 1.168 2.604 2.604 2.604h12.697l1.692 5.086c0.085 0.256 0.325 0.429 0.595 0.429h11.808c1.436 0 2.604-1.168 2.604-2.604v-20.776c-0-1.436-1.168-2.604-2.604-2.604zM2.604 24.982c-0.745 0-1.351-0.606-1.351-1.351v-20.776c0-0.745 0.606-1.351 1.351-1.351h11.523l4.418 13.345c0 0.001 0.001 0.002 0.001 0.003l3.354 10.13h-19.296zM21.091 17.705c0.050 0.069 0.677 0.93 1.647 2.129-0.274 0.36-0.563 0.717-0.869 1.065l-1.857-5.609h5.465c-0.387 0.814-1.059 2.113-1.981 3.483-0.847-1.058-1.379-1.789-1.391-1.804-0.203-0.28-0.595-0.343-0.875-0.139s-0.343 0.595-0.139 0.875zM16.622 26.235h4.698l-3.469 3.693-1.229-3.693zM30.747 29.145c0 0.745-0.606 1.351-1.351 1.351h-10.36l4.188-4.459c0.018-0.020 0.036-0.040 0.051-0.062 0.118-0.163 0.15-0.373 0.087-0.564l-1.043-3.15c0.442-0.463 0.855-0.946 1.238-1.435 0.831 0.986 1.815 2.090 2.861 3.137 0.122 0.122 0.283 0.184 0.443 0.184s0.321-0.061 0.443-0.184c0.245-0.245 0.245-0.642 0-0.886-1.091-1.091-2.126-2.265-2.98-3.29 1.328-1.906 2.19-3.719 2.533-4.497h1.341c0.346 0 0.627-0.281 0.627-0.627s-0.281-0.627-0.627-0.627h-1.763c-0.001 0-0.002 0-0.003 0h-2.369v-1.128c0-0.346-0.281-0.627-0.627-0.627s-0.627 0.281-0.627 0.627v1.128h-3.213l-2.324-7.018h12.123c0.745 0 1.351 0.606 1.351 1.351v20.776z"></path>
</symbol>

<symbol id="icon-twitter" viewBox="0 0 32 32">
<title>twitter</title>
<path d="M16 0c-8.822 0-16 7.178-16 16s7.178 16 16 16c8.822 0 16-7.178 16-16s-7.177-16-16-16zM23.138 12.338c0.007 0.159 0.011 0.318 0.011 0.478 0 4.866-3.703 10.476-10.479 10.476-2.080 0-4.016-0.608-5.645-1.653 0.288 0.034 0.581 0.052 0.878 0.052 1.726 0 3.313-0.589 4.574-1.576-1.611-0.030-2.972-1.094-3.44-2.558 0.224 0.043 0.456 0.066 0.692 0.066 0.336 0 0.662-0.044 0.971-0.128-1.685-0.338-2.954-1.826-2.954-3.611 0-0.015 0-0.032 0.001-0.046 0.496 0.275 1.064 0.441 1.667 0.46-0.987-0.659-1.638-1.787-1.638-3.065 0-0.675 0.181-1.308 0.498-1.852 1.816 2.229 4.53 3.694 7.59 3.849-0.063-0.27-0.095-0.55-0.095-0.84 0-2.033 1.649-3.683 3.682-3.683 1.060 0 2.015 0.447 2.688 1.163 0.84-0.165 1.626-0.47 2.339-0.894-0.277 0.86-0.859 1.582-1.622 2.038 0.746-0.089 1.457-0.286 2.115-0.579-0.491 0.737-1.116 1.386-1.835 1.904z"></path>
</symbol>

<symbol id="icon-payment" viewBox="0 0 121 110">
<title>payment</title>
<path class="st0" d="M69.8,24.6c0,1.9-0.4,3.2-2,3.2s-0.1,0-1.7,0c-1.7,0-2.2-1.3-2.2-2.4s0-15.4,0-17S63,5.9,61.5,5.9s-49.7,0-51.7,0S6.5,7.2,6.5,9s0,86.5,0,88.1c0,1.6,1.4,2.5,3.7,2.5s48.1,0,49.7,0c1.6,0,4-0.9,4-2.9c0-2,0-15.9,0-17.5s0.7-2.3,2.3-2.3c1.7,0-0.6,0,1.1,0s3.1,1.2,3.1,3.1c0,1.8,0,10.7,0,16.8s-1.7,9-11.1,9s-40.1,0-49.3,0S0,103.6,0,95.6s0-76,0-86C0,0.3,0.2,0,10.6,0s43.8,0,52,0c6.9,0,7.2,1.1,7.2,7.8S69.8,24.6,69.8,24.6z"></path>
<path class="st0" d="M45.8,63.4c-2.5-2.5-16.3-16.3-18.2-18.2c-1.9-1.9-4.1-2-5.8-0.3c-1.7,1.7,1-1.3-0.8,0.5s-1.3,3.2,1.1,5.6c2.4,2.4,13.4,13.4,17.4,17.4c3.9,3.9,11.1,5.8,16.8,0.1c5.7-5.7,50.6-50.6,53.8-53.8s1.8-4.5,0.8-5.5c-1-1,0.8,0.8-1-1c-1.8-1.8-3.3-0.7-5.5,1.6S54.8,59.5,52,62.3C49.2,65.1,47.8,65.4,45.8,63.4z"></path>
</symbol>

<symbol id="icon-tiktok" viewBox="0 0 96.12 96.12">
<title>tiktok</title>
<path class="st0" d="M48.06,0C21.52,0,0,21.52,0,48.06s21.52,48.06,48.06,48.06S96.12,74.6,96.12,48.06S74.6,0,48.06,0z M72.71,43.3c-3.41-0.11-6.84-0.82-9.93-2.29c-1.35-0.61-2.6-1.4-3.83-2.2c-0.02,6.91,0.03,13.81-0.04,20.69c-0.18,3.31-1.28,6.6-3.2,9.32c-3.09,4.53-8.46,7.49-13.97,7.58c-3.38,0.19-6.76-0.73-9.64-2.43c-4.78-2.82-8.14-7.97-8.63-13.5c-0.06-1.18-0.08-2.36-0.03-3.52c0.43-4.5,2.65-8.8,6.11-11.73c3.92-3.41,9.4-5.03,14.54-4.07c0.05,3.5-0.09,7-0.09,10.5c-2.35-0.76-5.09-0.55-7.14,0.88c-1.5,0.97-2.63,2.46-3.23,4.14c-0.49,1.2-0.35,2.53-0.32,3.8c0.56,3.88,4.29,7.14,8.28,6.79c2.64-0.03,5.17-1.56,6.55-3.8c0.45-0.79,0.94-1.59,0.97-2.51c0.23-4.23,0.14-8.44,0.17-12.67c0.02-9.53-0.03-19.04,0.04-28.54l0,0c3.09-0.05,6.17-0.02,9.24-0.05c0.19,3.62,1.49,7.31,4.14,9.87c2.64,2.62,6.38,3.82,10.02,4.23V43.3z"></path>
</symbol>

<symbol id="icon-people" viewBox="0 0 477.869 477.869">
<title>people</title>
<path d="M387.415,233.496c48.976-44.029,52.987-119.424,8.958-168.4C355.991,20.177,288.4,12.546,239.02,47.332c-53.83-37.99-128.264-25.149-166.254,28.68c-34.859,49.393-27.259,117.054,17.689,157.483c-55.849,29.44-90.706,87.481-90.453,150.613v51.2c0,9.426,7.641,17.067,17.067,17.067h443.733c9.426,0,17.067-7.641,17.067-17.067v-51.2C478.121,320.976,443.264,262.935,387.415,233.496z M307.201,59.842c47.062-0.052,85.256,38.057,85.309,85.119c0.037,33.564-19.631,64.023-50.237,77.799c-1.314,0.597-2.628,1.143-3.959,1.707c-4.212,1.699-8.556,3.051-12.988,4.045c-0.853,0.188-1.707,0.29-2.577,0.461c-4.952,0.949-9.977,1.457-15.019,1.519c-2.27,0-4.557-0.171-6.827-0.375c-0.853,0-1.707,0-2.56-0.171c-9.7-1.142-19.136-3.923-27.904-8.226c-0.324-0.154-0.7-0.137-1.024-0.273c-1.707-0.819-3.413-1.536-4.932-2.458c0.137-0.171,0.222-0.358,0.358-0.529c7.826-10.056,13.996-21.296,18.278-33.297l0.529-1.434c1.947-5.732,3.459-11.602,4.523-17.562c0.154-0.87,0.273-1.707,0.41-2.645c0.987-6.067,1.506-12.2,1.553-18.347c-0.049-6.135-0.568-12.257-1.553-18.313c-0.137-0.887-0.256-1.707-0.41-2.645c-1.064-5.959-2.576-11.83-4.523-17.562l-0.529-1.434c-4.282-12.001-10.453-23.241-18.278-33.297c-0.137-0.171-0.222-0.358-0.358-0.529C277.449,63.831,292.19,59.843,307.201,59.842z M85.335,145.176c-0.121-47.006,37.886-85.21,84.892-85.331c22.034-0.057,43.232,8.434,59.134,23.686c0.99,0.956,1.963,1.911,2.918,2.901c2.931,3.071,5.634,6.351,8.09,9.813c0.751,1.058,1.434,2.185,2.133,3.277c2.385,3.671,4.479,7.523,6.263,11.52c0.427,0.973,0.751,1.963,1.126,2.935c1.799,4.421,3.215,8.989,4.233,13.653c0.12,0.512,0.154,1.024,0.256,1.553c2.162,10.597,2.162,21.522,0,32.119c-0.102,0.529-0.137,1.041-0.256,1.553c-1.017,4.664-2.433,9.232-4.233,13.653c-0.375,0.973-0.7,1.963-1.126,2.935c-1.786,3.991-3.88,7.837-6.263,11.503c-0.7,1.092-1.382,2.219-2.133,3.277c-2.455,3.463-5.159,6.742-8.09,9.813c-0.956,0.99-1.929,1.946-2.918,2.901c-6.91,6.585-14.877,11.962-23.569,15.906c-1.382,0.631-2.782,1.212-4.198,1.707c-4.114,1.633-8.347,2.945-12.663,3.925c-1.075,0.239-2.185,0.375-3.277,0.563c-4.634,0.863-9.333,1.336-14.046,1.417h-1.877c-4.713-0.08-9.412-0.554-14.046-1.417c-1.092-0.188-2.202-0.324-3.277-0.563c-4.316-0.98-8.55-2.292-12.663-3.925c-1.417-0.563-2.816-1.143-4.198-1.707C105.013,209.057,85.374,178.677,85.335,145.176zM307.201,418.242H34.135v-34.133c-0.25-57.833,36.188-109.468,90.76-128.614c29.296,12.197,62.249,12.197,91.546,0c5.698,2.082,11.251,4.539,16.623,7.356c3.55,1.826,6.827,3.908,10.24,6.007c2.219,1.382,4.471,2.731,6.605,4.25c3.294,2.338,6.4,4.881,9.455,7.492c1.963,1.707,3.908,3.413,5.751,5.12c2.816,2.662,5.461,5.478,8.004,8.363c1.826,2.082,3.601,4.198,5.291,6.383c2.236,2.867,4.369,5.803,6.349,8.823c1.707,2.56,3.226,5.222,4.727,7.885c1.707,2.935,3.277,5.871,4.71,8.926c1.434,3.055,2.697,6.4,3.925,9.66c1.075,2.833,2.219,5.649,3.106,8.533c1.195,3.959,2.031,8.055,2.867,12.151c0.512,2.423,1.178,4.796,1.553,7.253c1.011,6.757,1.53,13.579,1.553,20.412V418.242zM443.735,418.242h-102.4v-34.133c0-5.342-0.307-10.633-0.785-15.872c-0.137-1.536-0.375-3.055-0.546-4.591c-0.461-3.772-0.99-7.509-1.707-11.213c-0.307-1.581-0.631-3.169-0.973-4.762c-0.819-3.8-1.769-7.566-2.85-11.298c-0.358-1.229-0.683-2.475-1.058-3.686c-4.779-15.277-11.704-29.797-20.565-43.127l-0.666-0.973c-2.935-4.358-6.07-8.573-9.404-12.646l-0.119-0.154c-3.413-4.232-7.117-8.346-11.008-12.237c0.222,0,0.461,0,0.7,0c4.816,0.633,9.666,0.975,14.524,1.024h0.939c4.496-0.039,8.985-0.33,13.449-0.87c1.399-0.171,2.782-0.427,4.181-0.649c3.63-0.557,7.214-1.28,10.752-2.167c1.007-0.256,2.031-0.495,3.055-0.785c4.643-1.263,9.203-2.814,13.653-4.642c54.612,19.127,91.083,70.785,90.829,128.649V418.242z"></path>
</symbol>

<symbol id="icon-smile" viewBox="0 0 512 512">
<title>smile</title>
<path d="M256,0C114.842,0,0,114.842,0,256s114.842,256,256,256s256-114.842,256-256S397.158,0,256,0z M256,465.455c-115.495,0-209.455-93.961-209.455-209.455S140.505,46.545,256,46.545S465.455,140.507,465.455,256S371.493,465.455,256,465.455z"></path>
<path d="M351.449,318.535c-9.089-9.087-23.825-9.087-32.914,0c-34.482,34.482-90.588,34.482-125.069,0c-9.089-9.087-23.823-9.087-32.912,0c-9.089,9.089-9.089,23.823,0,32.912c26.315,26.314,60.881,39.471,95.448,39.471c34.566,0,69.132-13.157,95.448-39.471C360.538,342.359,360.538,327.624,351.449,318.535z"></path>
<path d="M162.909,159.806c-38.498,0-69.818,31.32-69.818,69.818c0,12.853,10.42,23.273,23.273,23.273s23.273-10.42,23.273-23.273c0-12.833,10.44-23.273,23.273-23.273s23.273,10.44,23.273,23.273c0,12.853,10.42,23.273,23.273,23.273c12.853,0,23.273-10.42,23.273-23.273C232.727,191.127,201.407,159.806,162.909,159.806z"></path>
<path d="M349.091,159.806c-38.498,0-69.818,31.32-69.818,69.818c0,12.853,10.42,23.273,23.273,23.273c12.853,0,23.273-10.42,23.273-23.273c0-12.833,10.44-23.273,23.273-23.273c12.833,0,23.273,10.44,23.273,23.273c0,12.853,10.42,23.273,23.273,23.273c12.853,0,23.273-10.42,23.273-23.273C418.909,191.127,387.589,159.806,349.091,159.806z"></path>
</symbol>

<symbol id="icon-store" viewBox="0 0 477.867 477.867">
<title>store</title>
<path d="M476.996,114.074l-34.133-102.4C440.541,4.701,434.016-0.002,426.667,0H51.2c-7.349-0.002-13.874,4.701-16.196,11.674L0.87,114.074c-0.526,1.594-0.82,3.255-0.87,4.932c0,0.171,0,0.29,0,0.461v17.067c0.062,26.74,12.707,51.892,34.133,67.891c0,0.137,0,0.239,0,0.375v221.867c0,28.277,22.923,51.2,51.2,51.2h307.2c28.277,0,51.2-22.923,51.2-51.2V204.8c0-0.137,0-0.239,0-0.375c21.426-15.999,34.072-41.151,34.133-67.891v-17.067c0-0.171,0-0.29,0-0.461C477.816,117.328,477.523,115.667,476.996,114.074z M358.4,34.133h55.962l22.767,68.267H358.4V34.133z M256,34.133h68.267V102.4H256V34.133z M153.6,34.133h68.267V102.4H153.6V34.133z M63.505,34.133h55.962V102.4H40.738L63.505,34.133z M273.067,443.733H204.8V307.2h68.267V443.733z M409.6,426.667c0,9.426-7.641,17.067-17.067,17.067H307.2v-153.6c0-9.426-7.641-17.067-17.067-17.067h-102.4c-9.426,0-17.067,7.641-17.067,17.067v153.6H85.333c-9.426,0-17.067-7.641-17.067-17.067V220.16c23.951,4.917,48.857-0.799,68.267-15.667c30.466,22.376,71.934,22.376,102.4,0c30.466,22.376,71.934,22.376,102.4,0c19.41,14.869,44.316,20.584,68.267,15.667V426.667z M392.533,187.733c-14.759-0.009-28.774-6.483-38.349-17.715c-6.202-7.097-16.984-7.823-24.081-1.621c-0.576,0.503-1.118,1.045-1.621,1.621c-18.977,21.18-51.529,22.965-72.709,3.989c-1.401-1.256-2.733-2.587-3.989-3.989c-6.679-7.097-17.847-7.437-24.945-0.757c-0.26,0.245-0.513,0.497-0.757,0.757c-18.976,21.18-51.529,22.965-72.709,3.989c-1.402-1.256-2.733-2.587-3.989-3.989c-6.679-7.097-17.848-7.437-24.945-0.757c-0.26,0.245-0.513,0.497-0.757,0.757c-9.575,11.232-23.589,17.706-38.349,17.715c-28.277,0-51.2-22.923-51.2-51.2h409.6C443.733,164.81,420.81,187.733,392.533,187.733z"></path>
</symbol>

<symbol id="icon-sanitizer" viewBox="0 0 512 512">
<title>sanitizer</title>
<path d="m334.712 241.427c-4.39-32.924-28.725-59.096-59.767-66.972v-82.455h-66v-52h87.247c8.686 0 16.851 3.382 22.992 9.524l64.618 64.618 28.285-28.284-64.617-64.618c-13.697-13.697-31.907-21.24-51.277-21.24h-193.248v40h66v52h-66v82.454c-31.042 7.877-55.376 34.048-59.767 66.972l-25.51 191.321c-2.667 20.001 3.426 40.18 16.718 55.362 13.294 15.183 32.49 23.891 52.669 23.891h203.781c20.179 0 39.375-8.708 52.668-23.89 13.292-15.182 19.385-35.36 16.718-55.362zm-99.767-109.427v40h-92v-40zm78.463 329.761c-5.78 6.603-13.797 10.239-22.572 10.239h-203.781c-8.775 0-16.792-3.636-22.572-10.239-5.78-6.602-8.324-15.028-7.165-23.727l25.51-191.321c2.638-19.789 19.684-34.713 39.649-34.713h132.938c19.965 0 37.011 14.924 39.649 34.714l25.51 191.321c1.159 8.698-1.385 17.124-7.166 23.726zm158.087-257.274c-10.438-15.386-36.55-46.693-36.55-46.693s-26.111 31.307-36.55 46.693c-21.02 30.979-23.45 45.948-23.45 54.513 0 33.084 26.916 60 60 60s60-26.916 60-60c0-8.565-2.43-23.534-23.45-54.513zm-36.55 74.513c-11.028 0-20-8.972-20-19.97.002-.082.468-8.415 16.653-32.237 1.119-1.647 2.24-3.261 3.347-4.824 1.106 1.563 2.228 3.177 3.347 4.824 15.971 23.506 16.636 31.931 16.653 32.229-.011 11.019-8.979 19.978-20 19.978zm-225 44h40v40h-40v40h-40v-40h-40v-40h40v-40h40z"></path>
</symbol>

<symbol id="icon-done" viewBox="0 0 372.09 372.09">
<title>done</title>
<polygon points="339.719,27.855 120.922,282.666 29.143,196.838 0,228.001 124.293,344.235 372.09,55.65"></polygon>
</symbol>

<symbol id="icon-share" viewBox="0 0 24 24">
<title>share</title>
<path d="M 18 2 C 16.35499 2 15 3.3549904 15 5 C 15 5.1909529 15.021791 5.3771224 15.056641 5.5585938 L 7.921875 9.7207031 C 7.3985399 9.2778539 6.7320771 9 6 9 C 4.3549904 9 3 10.35499 3 12 C 3 13.64501 4.3549904 15 6 15 C 6.7320771 15 7.3985399 14.722146 7.921875 14.279297 L 15.056641 18.439453 C 15.021555 18.621514 15 18.808386 15 19 C 15 20.64501 16.35499 22 18 22 C 19.64501 22 21 20.64501 21 19 C 21 17.35499 19.64501 16 18 16 C 17.26748 16 16.601593 16.279328 16.078125 16.722656 L 8.9433594 12.558594 C 8.9782095 12.377122 9 12.190953 9 12 C 9 11.809047 8.9782095 11.622878 8.9433594 11.441406 L 16.078125 7.2792969 C 16.60146 7.7221461 17.267923 8 18 8 C 19.64501 8 21 6.6450096 21 5 C 21 3.3549904 19.64501 2 18 2 z M 18 4 C 18.564129 4 19 4.4358706 19 5 C 19 5.5641294 18.564129 6 18 6 C 17.435871 6 17 5.5641294 17 5 C 17 4.4358706 17.435871 4 18 4 z M 6 11 C 6.5641294 11 7 11.435871 7 12 C 7 12.564129 6.5641294 13 6 13 C 5.4358706 13 5 12.564129 5 12 C 5 11.435871 5.4358706 11 6 11 z M 18 18 C 18.564129 18 19 18.435871 19 19 C 19 19.564129 18.564129 20 18 20 C 17.435871 20 17 19.564129 17 19 C 17 18.435871 17.435871 18 18 18 z"></path>
</symbol>

<symbol id="icon-comment" viewBox="0 0 24 24">
<title>comment</title>
<path d="M12 16l-5 5v-5H5c-1.1 0-2-.9-2-2V5c0-1.1.9-2 2-2h14c1.1 0 2 .9 2 2v9c0 1.1-.9 2-2 2h-7z"></path>
</symbol>

<symbol id="icon-like" viewBox="0 0 230 230">
<title>like</title>
<path d="M213.588,120.982L115,213.445l-98.588-92.463C-6.537,96.466-5.26,57.99,19.248,35.047l2.227-2.083	c24.51-22.942,62.984-21.674,85.934,2.842L115,43.709l7.592-7.903c22.949-24.516,61.424-25.784,85.936-2.842l2.227,2.083	C235.26,57.99,236.537,96.466,213.588,120.982z"></path>
</symbol>

<symbol id="icon-x" viewBox="0 0 512 512">
<title>x</title>
<polygon class="st0" points="186.1,176.5 306.9,334.5 325.4,334.5 206,176.5 	"></polygon>
<path class="st0" d="M256,0C114.6,0,0,114.6,0,256s114.6,256,256,256s256-114.6,256-256S397.4,0,256,0z M297.7,354.5L245,285.6l-60.2,68.8h-33.4l78.1-89.2l-82.4-107.7H216l47.6,62.9l55-62.9H352l-73,83.4l85.8,113.5H297.7z"></path>
</symbol>

</defs>
</svg>